<svg xmlns="http://www.w3.org/2000/svg" version="1.1" xmlns:xlink="http://www.w3.org/1999/xlink" xmlns:svgjs="http://svgjs.com/svgjs" width="1440" height="560" preserveAspectRatio="none" viewBox="0 0 1440 560"><g mask="url(&quot;#SvgjsMask1033&quot;)" fill="none"><rect width="1440" height="560" x="0" y="0" fill="#0e2a47"></rect><path d="M864.505,525.703C881.561,525.966,901.262,525.651,909.914,510.95C918.635,496.131,910.014,478.308,901.022,463.651C892.569,449.872,880.67,436.909,864.505,436.932C848.369,436.955,836.391,449.871,828.166,463.753C819.73,477.991,813.083,495.313,821.457,509.588C829.766,523.753,848.085,525.45,864.505,525.703" fill="rgba(28, 83, 142, 0.4)" class="triangle-float3"></path><path d="M394.151,330.679C441.824,331.395,494.125,327.226,520.407,287.446C548.868,244.367,544.343,187.456,518.183,142.942C492.373,99.023,445.062,70.824,394.151,72.604C345.936,74.29,308.102,109.165,284.286,151.121C260.829,192.446,249.498,243.216,274.298,283.749C298.298,322.974,348.171,329.988,394.151,330.679" fill="rgba(28, 83, 142, 0.4)" class="triangle-float2"></path><path d="M1212.088,264.875C1255.6,266.599,1295.177,238.668,1315.31,200.056C1334.084,164.051,1324.855,122.241,1304.902,86.875C1284.517,50.744,1253.569,16.498,1212.088,17.098C1171.304,17.688,1142.433,53.206,1123.81,89.494C1107.021,122.208,1105.588,159.559,1122.12,192.404C1140.677,229.27,1170.847,263.241,1212.088,264.875" fill="rgba(28, 83, 142, 0.4)" class="triangle-float1"></path><path d="M623.787,196.65C649.33,196.793,669.874,178.064,682.511,155.866C694.994,133.939,699.511,107.374,687.123,85.394C674.536,63.062,649.385,50.295,623.787,51.675C600.243,52.944,582.728,71.034,571.266,91.639C560.189,111.551,555.998,134.836,566.191,155.215C577.53,177.887,598.438,196.508,623.787,196.65" fill="rgba(28, 83, 142, 0.4)" class="triangle-float1"></path><path d="M226.314,629.571C263.78,631.21,297.302,608.145,316.568,575.97C336.419,542.818,341.065,502.195,323.057,468.007C303.8,431.449,267.608,403.149,226.314,404.626C186.896,406.036,157.716,438.866,140.857,474.524C126.435,505.027,132.486,539.081,148.772,568.63C165.779,599.487,191.114,628.031,226.314,629.571" fill="rgba(28, 83, 142, 0.4)" class="triangle-float2"></path><path d="M1395.665,582.193C1449.524,583.137,1499.49,553.517,1526.2,506.738C1552.692,460.34,1550.566,403.634,1524.127,357.206C1497.401,310.273,1449.666,276.601,1395.665,277.512C1343.017,278.4,1299.748,315.211,1274.497,361.417C1250.359,405.587,1248.605,458.17,1272.823,502.296C1298.012,548.191,1343.32,581.275,1395.665,582.193" fill="rgba(28, 83, 142, 0.4)" class="triangle-float2"></path><path d="M1098.059,432.264C1151.78,430.531,1203.987,406.226,1229.379,358.853C1253.603,313.658,1240.882,259.759,1213.889,216.161C1188.494,175.143,1146.259,148.78,1098.059,146.75C1045.794,144.549,992.95,162.065,964.004,205.638C931.84,254.054,921.599,317.8,951.192,367.829C980.364,417.145,1040.791,434.112,1098.059,432.264" fill="rgba(28, 83, 142, 0.4)" class="triangle-float1"></path><path d="M943.405,352.314C977.283,353.19,1013.925,342.61,1029.507,312.516C1044.312,283.923,1026.47,252.009,1009.514,224.637C993.792,199.257,973.212,175.21,943.405,173.522C910.886,171.68,879.347,188.212,862.916,216.335C846.346,244.695,847.952,279.989,864.683,308.255C881.1,335.99,911.186,351.481,943.405,352.314" fill="rgba(28, 83, 142, 0.4)" class="triangle-float1"></path><path d="M125.458,655.151C181.973,654.188,213.587,597.193,242.349,548.535C271.893,498.553,310.009,441.534,281.684,390.851C253.015,339.554,184.038,334.723,125.458,339.383C75.866,343.328,32.08,369.691,7.073,412.698C-18.079,455.954,-20.499,507.678,1.456,552.641C26.677,604.292,67.986,656.131,125.458,655.151" fill="rgba(28, 83, 142, 0.4)" class="triangle-float2"></path><path d="M787.176,580.177C819.817,580.435,852.775,569.563,870.149,541.929C888.597,512.585,889.952,474.705,872.205,444.932C854.841,415.801,821.09,402.853,787.176,402.727C753.008,402.6,718.307,414.809,701.045,444.296C683.629,474.046,687.983,511.521,706.439,540.637C723.634,567.764,755.059,579.924,787.176,580.177" fill="rgba(28, 83, 142, 0.4)" class="triangle-float1"></path><path d="M1204.948,434.017C1251.949,437.004,1306.53,434.923,1330.711,394.509C1355.258,353.483,1331.836,303.842,1307.435,262.729C1283.715,222.762,1251.422,182.134,1204.948,182.609C1159.005,183.079,1126.916,223.866,1106.026,264.787C1087.291,301.488,1083.333,344.535,1104.127,380.109C1124.74,415.372,1164.184,431.426,1204.948,434.017" fill="rgba(28, 83, 142, 0.4)" class="triangle-float3"></path><path d="M1006.63,283.472C1061.222,284.773,1102.582,240.184,1129.643,192.753C1156.407,145.842,1170.893,89.257,1144.234,42.286C1117.3,-5.168,1061.037,-28.138,1006.63,-23.982C958.419,-20.3,924.041,18.245,901.182,60.851C879.813,100.68,874.02,146.275,893.369,187.123C916.11,235.134,953.52,282.206,1006.63,283.472" fill="rgba(28, 83, 142, 0.4)" class="triangle-float3"></path><path d="M661.586,655.204C716.639,655.928,768.903,624.307,793.087,574.845C815.002,530.023,792.713,480.827,768.051,437.455C742.985,393.372,712.112,347.906,661.586,343.581C604.349,338.681,545.788,365.746,518.052,416.053C491.068,464.996,507.184,523.54,535.945,571.461C563.705,617.714,607.647,654.494,661.586,655.204" fill="rgba(28, 83, 142, 0.4)" class="triangle-float2"></path><path d="M1181.254,539.217C1207.942,537.711,1232.839,525.156,1246.146,501.974C1259.397,478.89,1257.231,451.318,1245.397,427.476C1231.847,400.176,1211.715,372.248,1181.254,371.234C1149.605,370.18,1124.914,395.416,1109.262,422.944C1093.824,450.096,1085.859,483.537,1102.301,510.093C1118.128,535.655,1151.237,540.911,1181.254,539.217" fill="rgba(28, 83, 142, 0.4)" class="triangle-float3"></path><path d="M266.735,287.23C312.976,286.769,358.063,267.474,381.676,227.714C405.766,187.151,402.682,137.307,380.501,95.669C356.775,51.129,317.199,12.26,266.735,11.945C215.85,11.627,174.848,49.561,150.479,94.232C127.238,136.836,122.715,188.474,147.756,230.045C172.091,270.444,219.575,287.7,266.735,287.23" fill="rgba(28, 83, 142, 0.4)" class="triangle-float3"></path><path d="M1376.297,232.94C1396.113,234.756,1418.646,232.65,1429.309,215.849C1440.495,198.225,1434.895,175.51,1424.078,157.657C1413.701,140.531,1396.315,128.866,1376.297,128.359C1355.357,127.829,1333.297,136.29,1324.132,155.126C1315.676,172.505,1327.046,191.412,1337.808,207.465C1346.99,221.162,1359.876,231.435,1376.297,232.94" fill="rgba(28, 83, 142, 0.4)" class="triangle-float3"></path></g><defs><mask id="SvgjsMask1033"><rect width="1440" height="560" fill="#ffffff"></rect></mask><style>
            @keyframes float1 {
                0%{transform: translate(0, 0)}
                50%{transform: translate(-10px, 0)}
                100%{transform: translate(0, 0)}
            }

            .triangle-float1 {
                animation: float1 5s infinite;
            }

            @keyframes float2 {
                0%{transform: translate(0, 0)}
                50%{transform: translate(-5px, -5px)}
                100%{transform: translate(0, 0)}
            }

            .triangle-float2 {
                animation: float2 4s infinite;
            }

            @keyframes float3 {
                0%{transform: translate(0, 0)}
                50%{transform: translate(0, -10px)}
                100%{transform: translate(0, 0)}
            }

            .triangle-float3 {
                animation: float3 6s infinite;
            }
        </style></defs></svg>