<svg id="visual" viewBox="0 0 900 600" width="900" height="600" xmlns="http://www.w3.org/2000/svg" xmlns:xlink="http://www.w3.org/1999/xlink" version="1.1"><rect x="0" y="0" width="900" height="600" fill="#001220"></rect><defs><linearGradient id="grad1_0" x1="33.3%" y1="0%" x2="100%" y2="100%"><stop offset="20%" stop-color="#0066ff" stop-opacity="1"></stop><stop offset="80%" stop-color="#0066ff" stop-opacity="1"></stop></linearGradient></defs><defs><linearGradient id="grad1_1" x1="33.3%" y1="0%" x2="100%" y2="100%"><stop offset="20%" stop-color="#0066ff" stop-opacity="1"></stop><stop offset="80%" stop-color="#005bd9" stop-opacity="1"></stop></linearGradient></defs><defs><linearGradient id="grad1_2" x1="33.3%" y1="0%" x2="100%" y2="100%"><stop offset="20%" stop-color="#004eb2" stop-opacity="1"></stop><stop offset="80%" stop-color="#005bd9" stop-opacity="1"></stop></linearGradient></defs><defs><linearGradient id="grad1_3" x1="33.3%" y1="0%" x2="100%" y2="100%"><stop offset="20%" stop-color="#004eb2" stop-opacity="1"></stop><stop offset="80%" stop-color="#00408b" stop-opacity="1"></stop></linearGradient></defs><defs><linearGradient id="grad1_4" x1="33.3%" y1="0%" x2="100%" y2="100%"><stop offset="20%" stop-color="#003165" stop-opacity="1"></stop><stop offset="80%" stop-color="#00408b" stop-opacity="1"></stop></linearGradient></defs><defs><linearGradient id="grad1_5" x1="33.3%" y1="0%" x2="100%" y2="100%"><stop offset="20%" stop-color="#003165" stop-opacity="1"></stop><stop offset="80%" stop-color="#002241" stop-opacity="1"></stop></linearGradient></defs><defs><linearGradient id="grad1_6" x1="33.3%" y1="0%" x2="100%" y2="100%"><stop offset="20%" stop-color="#001220" stop-opacity="1"></stop><stop offset="80%" stop-color="#002241" stop-opacity="1"></stop></linearGradient></defs><defs><linearGradient id="grad2_0" x1="0%" y1="0%" x2="66.7%" y2="100%"><stop offset="20%" stop-color="#0066ff" stop-opacity="1"></stop><stop offset="80%" stop-color="#0066ff" stop-opacity="1"></stop></linearGradient></defs><defs><linearGradient id="grad2_1" x1="0%" y1="0%" x2="66.7%" y2="100%"><stop offset="20%" stop-color="#005bd9" stop-opacity="1"></stop><stop offset="80%" stop-color="#0066ff" stop-opacity="1"></stop></linearGradient></defs><defs><linearGradient id="grad2_2" x1="0%" y1="0%" x2="66.7%" y2="100%"><stop offset="20%" stop-color="#005bd9" stop-opacity="1"></stop><stop offset="80%" stop-color="#004eb2" stop-opacity="1"></stop></linearGradient></defs><defs><linearGradient id="grad2_3" x1="0%" y1="0%" x2="66.7%" y2="100%"><stop offset="20%" stop-color="#00408b" stop-opacity="1"></stop><stop offset="80%" stop-color="#004eb2" stop-opacity="1"></stop></linearGradient></defs><defs><linearGradient id="grad2_4" x1="0%" y1="0%" x2="66.7%" y2="100%"><stop offset="20%" stop-color="#00408b" stop-opacity="1"></stop><stop offset="80%" stop-color="#003165" stop-opacity="1"></stop></linearGradient></defs><defs><linearGradient id="grad2_5" x1="0%" y1="0%" x2="66.7%" y2="100%"><stop offset="20%" stop-color="#002241" stop-opacity="1"></stop><stop offset="80%" stop-color="#003165" stop-opacity="1"></stop></linearGradient></defs><defs><linearGradient id="grad2_6" x1="0%" y1="0%" x2="66.7%" y2="100%"><stop offset="20%" stop-color="#002241" stop-opacity="1"></stop><stop offset="80%" stop-color="#001220" stop-opacity="1"></stop></linearGradient></defs><g transform="translate(900, 0)"><path d="M0 486.7C-59 463.8 -118.1 440.8 -171.8 414.8C-225.6 388.9 -274 360 -323.1 323.1C-372.3 286.3 -422.3 241.5 -449.7 186.3C-477.1 131.1 -481.9 65.5 -486.7 0L0 0Z" fill="#001a30"></path><path d="M0 417.2C-50.6 397.5 -101.2 377.8 -147.3 355.6C-193.3 333.3 -234.8 308.6 -277 277C-319.1 245.4 -362 207 -385.5 159.7C-408.9 112.4 -413.1 56.2 -417.2 0L0 0Z" fill="#002a53"></path><path d="M0 347.7C-42.2 331.3 -84.4 314.8 -122.7 296.3C-161.1 277.8 -195.7 257.1 -230.8 230.8C-266 204.5 -301.6 172.5 -321.2 133.1C-340.8 93.6 -344.2 46.8 -347.7 0L0 0Z" fill="#003978"></path><path d="M0 278.1C-33.7 265 -67.5 251.9 -98.2 237C-128.9 222.2 -156.5 205.7 -184.7 184.7C-212.8 163.6 -241.3 138 -257 106.4C-272.6 74.9 -275.4 37.5 -278.1 0L0 0Z" fill="#00479f"></path><path d="M0 208.6C-25.3 198.8 -50.6 188.9 -73.6 177.8C-96.7 166.7 -117.4 154.3 -138.5 138.5C-159.6 122.7 -181 103.5 -192.7 79.8C-204.5 56.2 -206.5 28.1 -208.6 0L0 0Z" fill="#0055c6"></path><path d="M0 139.1C-16.9 132.5 -33.7 125.9 -49.1 118.5C-64.4 111.1 -78.3 102.9 -92.3 92.3C-106.4 81.8 -120.7 69 -128.5 53.2C-136.3 37.5 -137.7 18.7 -139.1 0L0 0Z" fill="#0061ec"></path><path d="M0 69.5C-8.4 66.3 -16.9 63 -24.5 59.3C-32.2 55.6 -39.1 51.4 -46.2 46.2C-53.2 40.9 -60.3 34.5 -64.2 26.6C-68.2 18.7 -68.8 9.4 -69.5 0L0 0Z" fill="#0066ff"></path></g><g transform="translate(0, 600)"><path d="M0 -486.7C60.2 -469.6 120.4 -452.4 177.9 -429.6C235.5 -406.9 290.3 -378.5 338 -338C385.7 -297.4 426.1 -244.6 449.7 -186.3C473.3 -127.9 480 -63.9 486.7 0L0 0Z" fill="#001a30"></path><path d="M0 -417.2C51.6 -402.5 103.2 -387.7 152.5 -368.2C201.8 -348.7 248.9 -324.5 289.7 -289.7C330.6 -255 365.2 -209.7 385.5 -159.7C405.7 -109.6 411.4 -54.8 417.2 0L0 0Z" fill="#002a53"></path><path d="M0 -347.7C43 -335.4 86 -323.1 127.1 -306.9C168.2 -290.6 207.4 -270.4 241.4 -241.4C275.5 -212.5 304.4 -174.7 321.2 -133.1C338.1 -91.4 342.9 -45.7 347.7 0L0 0Z" fill="#003978"></path><path d="M0 -278.1C34.4 -268.3 68.8 -258.5 101.7 -245.5C134.6 -232.5 165.9 -216.3 193.1 -193.1C220.4 -170 243.5 -139.8 257 -106.4C270.5 -73.1 274.3 -36.5 278.1 0L0 0Z" fill="#00479f"></path><path d="M0 -208.6C25.8 -201.2 51.6 -193.9 76.3 -184.1C100.9 -174.4 124.4 -162.2 144.9 -144.9C165.3 -127.5 182.6 -104.8 192.7 -79.8C202.8 -54.8 205.7 -27.4 208.6 0L0 0Z" fill="#0055c6"></path><path d="M0 -139.1C17.2 -134.2 34.4 -129.2 50.8 -122.7C67.3 -116.2 83 -108.2 96.6 -96.6C110.2 -85 121.7 -69.9 128.5 -53.2C135.2 -36.5 137.1 -18.3 139.1 0L0 0Z" fill="#0061ec"></path><path d="M0 -69.5C8.6 -67.1 17.2 -64.6 25.4 -61.4C33.6 -58.1 41.5 -54.1 48.3 -48.3C55.1 -42.5 60.9 -34.9 64.2 -26.6C67.6 -18.3 68.6 -9.1 69.5 0L0 0Z" fill="#0066ff"></path></g></svg>